<svg width="66" height="43" viewBox="0 0 66 43" fill="none" xmlns="http://www.w3.org/2000/svg">
<path fill-rule="evenodd" clip-rule="evenodd" d="M27.3739 0.261106C12.1557 -2.1694 0.0223114 12.8005 5.55102 27.1858L5.7801 27.7818C6.46509 29.5641 7.38909 31.2104 8.50887 32.6876L0 37.0775H13.1033C15.8418 38.9641 19.0573 40.1736 22.4941 40.5111L44.4756 42.6698C56.007 43.8023 66.0004 34.7422 66.0004 23.1553C66.0004 13.5197 58.9995 5.31203 49.4845 3.79239L27.3739 0.261106Z" fill="#2E2E2E"/>
<path d="M21.832 13.0342C21.832 13.5492 21.8252 14.0596 21.8115 14.5654C21.8024 15.0667 21.7865 15.5726 21.7637 16.083L17.8262 16.0146C17.9629 15.208 18.0814 14.4036 18.1816 13.6016C18.2819 12.7949 18.332 11.9814 18.332 11.1611C18.332 11.1019 18.3298 11.0062 18.3252 10.874C18.3206 10.7419 18.3115 10.5938 18.2979 10.4297C18.2842 10.2611 18.2637 10.0902 18.2363 9.91699C18.2135 9.73926 18.1794 9.57747 18.1338 9.43164C18.0928 9.28581 18.0404 9.16732 17.9766 9.07617C17.9173 8.98047 17.8444 8.93262 17.7578 8.93262C17.6029 8.93262 17.4707 8.97819 17.3613 9.06934C17.2565 9.16048 17.1676 9.27897 17.0947 9.4248C17.0264 9.56608 16.9717 9.72559 16.9307 9.90332C16.8896 10.0811 16.8577 10.2588 16.835 10.4365C16.8167 10.6143 16.8031 10.7829 16.7939 10.9424C16.7894 11.0973 16.7871 11.2249 16.7871 11.3252C16.7643 12.1318 16.7461 12.9339 16.7324 13.7314C16.7188 14.5244 16.7005 15.3265 16.6777 16.1377L13.1914 16.2881C13.2826 14.6794 13.3691 13.0798 13.4512 11.4893C13.5378 9.89876 13.6061 8.29915 13.6562 6.69043L16.8828 6.52637L16.8555 7.62012C16.9831 7.46517 17.1198 7.31934 17.2656 7.18262C17.416 7.0459 17.5755 6.92969 17.7441 6.83398C17.9128 6.73372 18.0905 6.65625 18.2773 6.60156C18.4688 6.54232 18.6693 6.5127 18.8789 6.5127C19.2663 6.5127 19.6058 6.5765 19.8975 6.7041C20.1891 6.83171 20.4398 7.00488 20.6494 7.22363C20.859 7.44238 21.0345 7.70215 21.1758 8.00293C21.3171 8.29915 21.431 8.61589 21.5176 8.95312C21.6042 9.29036 21.6702 9.64355 21.7158 10.0127C21.7614 10.3773 21.791 10.7373 21.8047 11.0928C21.8229 11.4482 21.832 11.7923 21.832 12.125C21.832 12.4577 21.832 12.7607 21.832 13.0342Z" fill="white"/>
<path d="M53.9775 32.4766C53.9775 32.873 53.9502 33.2695 53.8955 33.666C53.1162 33.7161 52.3415 33.7982 51.5713 33.9121C50.8011 34.0215 50.0309 34.1309 49.2607 34.2402C49.3792 34.5684 49.5638 34.8304 49.8145 35.0264C50.0697 35.2223 50.3727 35.3203 50.7236 35.3203C50.9059 35.3203 51.1042 35.2861 51.3184 35.2178C51.5371 35.1494 51.7536 35.0651 51.9678 34.9648C52.182 34.86 52.387 34.7484 52.583 34.6299C52.779 34.5114 52.9476 34.4043 53.0889 34.3086L52.7607 37.4121C52.583 37.5488 52.3893 37.665 52.1797 37.7607C51.9746 37.8564 51.7604 37.9339 51.5371 37.9932C51.3138 38.0524 51.0882 38.0957 50.8604 38.123C50.6325 38.1504 50.4092 38.1641 50.1904 38.1641C49.7393 38.1641 49.3268 38.1025 48.9531 37.9795C48.5794 37.8564 48.2399 37.6855 47.9346 37.4668C47.6338 37.2435 47.3695 36.9814 47.1416 36.6807C46.9137 36.3799 46.7246 36.0518 46.5742 35.6963C46.4238 35.3408 46.3099 34.9648 46.2324 34.5684C46.1549 34.1719 46.1162 33.7708 46.1162 33.3652C46.1162 32.9414 46.1549 32.5176 46.2324 32.0938C46.3099 31.6699 46.4261 31.262 46.5811 30.8701C46.7406 30.4782 46.9388 30.1159 47.1758 29.7832C47.4173 29.446 47.6976 29.152 48.0166 28.9014C48.3356 28.6507 48.6956 28.4548 49.0967 28.3135C49.5023 28.1722 49.9489 28.1016 50.4365 28.1016C50.8421 28.1016 51.2113 28.1585 51.5439 28.2725C51.8812 28.3818 52.1797 28.5368 52.4395 28.7373C52.7038 28.9333 52.9316 29.168 53.123 29.4414C53.319 29.7148 53.4785 30.0156 53.6016 30.3438C53.7292 30.6673 53.8226 31.0114 53.8818 31.376C53.9456 31.736 53.9775 32.1029 53.9775 32.4766ZM51.2432 32.1211C51.2432 31.9935 51.2295 31.8636 51.2021 31.7314C51.1748 31.5947 51.1292 31.4717 51.0654 31.3623C51.0062 31.2529 50.9264 31.1641 50.8262 31.0957C50.7259 31.0228 50.6006 30.9863 50.4502 30.9863C50.2679 30.9863 50.1061 31.0365 49.9648 31.1367C49.8281 31.2324 49.7096 31.3555 49.6094 31.5059C49.5091 31.6517 49.4271 31.8112 49.3633 31.9844C49.2995 32.1576 49.2516 32.3171 49.2197 32.4629L51.2432 32.2715V32.1211Z" fill="#E85F81"/>
<path d="M40.6406 6.67605L38.2027 11.188L40.8045 14.9382L37.9976 15.9934L36.4968 13.4247L35.1937 16.3088L32.191 15.417L34.4991 11.3098L32.0065 7.55317L35.0934 6.61855L36.3394 9.02414L37.4 6.48301L40.6406 6.67605Z" fill="white"/>
<path d="M49.5879 6.85449L49.5195 9.75293L47.4824 9.83496L47.2363 16.1787L44.3516 16.3291L44.0918 9.98535L42.0547 10.0947L42.1367 6.86816L49.5879 6.85449Z" fill="#E85F81"/>
<path d="M21.5879 18.3613L21.5195 21.2598L19.4824 21.3418L19.2363 27.6855L16.3516 27.8359L16.0918 21.4922L14.0547 21.6016L14.1367 18.375L21.5879 18.3613Z" fill="white"/>
<path d="M44.2979 33.3652C44.2979 34.0169 44.2773 34.6663 44.2363 35.3135C44.1953 35.9606 44.1475 36.61 44.0928 37.2617L40.5791 37.4258C40.6839 36.6328 40.7773 35.8398 40.8594 35.0469C40.946 34.2493 40.9893 33.4518 40.9893 32.6543C40.9893 32.6042 40.987 32.5176 40.9824 32.3945C40.9779 32.2669 40.9688 32.1234 40.9551 31.9639C40.946 31.8044 40.93 31.6403 40.9072 31.4717C40.889 31.2985 40.8617 31.1413 40.8252 31C40.7933 30.8542 40.7523 30.7357 40.7021 30.6445C40.652 30.5534 40.5928 30.5078 40.5244 30.5078C40.3649 30.5078 40.2396 30.5693 40.1484 30.6924C40.0573 30.8109 39.9889 30.9544 39.9434 31.123C39.9023 31.2917 39.8773 31.4648 39.8682 31.6426C39.859 31.8158 39.8545 31.957 39.8545 32.0664C39.8545 32.2578 39.859 32.4492 39.8682 32.6406C39.8773 32.832 39.8818 33.028 39.8818 33.2285C39.8818 33.9349 39.8636 34.639 39.8271 35.3408C39.7952 36.0426 39.7542 36.7467 39.7041 37.4531L36.4639 37.5762C36.5687 36.7832 36.6598 35.9925 36.7373 35.2041C36.8193 34.4111 36.8604 33.6159 36.8604 32.8184C36.8604 32.7682 36.8581 32.6771 36.8535 32.5449C36.849 32.4128 36.8398 32.2646 36.8262 32.1006C36.8171 31.9365 36.8011 31.7656 36.7783 31.5879C36.7555 31.4102 36.7259 31.2484 36.6895 31.1025C36.6576 30.9521 36.6165 30.8291 36.5664 30.7334C36.5163 30.6377 36.4548 30.5898 36.3818 30.5898C36.2679 30.5898 36.1722 30.6354 36.0947 30.7266C36.0173 30.8132 35.9535 30.9271 35.9033 31.0684C35.8577 31.2096 35.8213 31.3669 35.7939 31.54C35.7712 31.7087 35.7529 31.875 35.7393 32.0391C35.7301 32.2031 35.7233 32.3558 35.7188 32.4971C35.7188 32.6338 35.7165 32.7363 35.7119 32.8047L35.5615 37.7949H32.1162C32.1891 37.0247 32.262 36.2523 32.335 35.4775C32.4124 34.7028 32.4785 33.9303 32.5332 33.1602C32.5924 32.3854 32.6403 31.6107 32.6768 30.8359C32.7132 30.0612 32.7314 29.2865 32.7314 28.5117L35.9854 28.375L35.9717 29.168C36.0719 29.0404 36.1859 28.9128 36.3135 28.7852C36.4411 28.653 36.5755 28.5368 36.7168 28.4365C36.8626 28.3317 37.0153 28.2474 37.1748 28.1836C37.3389 28.1198 37.5075 28.0879 37.6807 28.0879C37.904 28.0879 38.1045 28.1061 38.2822 28.1426C38.46 28.1745 38.6195 28.2314 38.7607 28.3135C38.9066 28.3955 39.0342 28.5094 39.1436 28.6553C39.2529 28.7965 39.3486 28.9766 39.4307 29.1953C39.5765 29.0358 39.7223 28.8877 39.8682 28.751C40.0186 28.6143 40.1758 28.498 40.3398 28.4023C40.5039 28.3021 40.6816 28.2246 40.873 28.1699C41.0645 28.1152 41.2764 28.0879 41.5088 28.0879C41.9508 28.0879 42.3268 28.1745 42.6367 28.3477C42.9466 28.5163 43.2041 28.7419 43.4092 29.0244C43.6188 29.307 43.7806 29.6305 43.8945 29.9951C44.013 30.3597 44.1019 30.738 44.1611 31.1299C44.2204 31.5218 44.2568 31.9115 44.2705 32.2988C44.2887 32.6862 44.2979 33.0417 44.2979 33.3652Z" fill="white"/>
<path d="M30.9775 10.9697C30.9775 11.3662 30.9502 11.7627 30.8955 12.1592C30.1162 12.2093 29.3415 12.2913 28.5713 12.4053C27.8011 12.5146 27.0309 12.624 26.2607 12.7334C26.3792 13.0615 26.5638 13.3236 26.8145 13.5195C27.0697 13.7155 27.3727 13.8135 27.7236 13.8135C27.9059 13.8135 28.1042 13.7793 28.3184 13.7109C28.5371 13.6426 28.7536 13.5583 28.9678 13.458C29.182 13.3532 29.387 13.2415 29.583 13.123C29.779 13.0046 29.9476 12.8975 30.0889 12.8018L29.7607 15.9053C29.583 16.042 29.3893 16.1582 29.1797 16.2539C28.9746 16.3496 28.7604 16.4271 28.5371 16.4863C28.3138 16.5456 28.0882 16.5889 27.8604 16.6162C27.6325 16.6436 27.4092 16.6572 27.1904 16.6572C26.7393 16.6572 26.3268 16.5957 25.9531 16.4727C25.5794 16.3496 25.2399 16.1787 24.9346 15.96C24.6338 15.7367 24.3695 15.4746 24.1416 15.1738C23.9137 14.873 23.7246 14.5449 23.5742 14.1895C23.4238 13.834 23.3099 13.458 23.2324 13.0615C23.1549 12.665 23.1162 12.264 23.1162 11.8584C23.1162 11.4346 23.1549 11.0107 23.2324 10.5869C23.3099 10.1631 23.4261 9.75521 23.5811 9.36328C23.7406 8.97135 23.9388 8.60905 24.1758 8.27637C24.4173 7.93913 24.6976 7.64518 25.0166 7.39453C25.3356 7.14388 25.6956 6.94792 26.0967 6.80664C26.5023 6.66536 26.9489 6.59473 27.4365 6.59473C27.8421 6.59473 28.2113 6.65169 28.5439 6.76562C28.8812 6.875 29.1797 7.02995 29.4395 7.23047C29.7038 7.42643 29.9316 7.66113 30.123 7.93457C30.319 8.20801 30.4785 8.50879 30.6016 8.83691C30.7292 9.16048 30.8226 9.50456 30.8818 9.86914C30.9456 10.2292 30.9775 10.596 30.9775 10.9697ZM28.2432 10.6143C28.2432 10.4867 28.2295 10.3568 28.2021 10.2246C28.1748 10.0879 28.1292 9.96484 28.0654 9.85547C28.0062 9.74609 27.9264 9.65723 27.8262 9.58887C27.7259 9.51595 27.6006 9.47949 27.4502 9.47949C27.2679 9.47949 27.1061 9.52962 26.9648 9.62988C26.8281 9.72559 26.7096 9.84863 26.6094 9.99902C26.5091 10.1449 26.4271 10.3044 26.3633 10.4775C26.2995 10.6507 26.2516 10.8102 26.2197 10.9561L28.2432 10.7646V10.6143Z" fill="#ED645E"/>
<ellipse cx="27" cy="23.5" rx="4" ry="4.5" fill="#ED645E"/>
</svg>
